<svg width="32" height="32" viewBox="0 0 32 32" fill="none" xmlns="http://www.w3.org/2000/svg">
<path d="M29.0616 11.375C29.0616 10.6417 28.4616 10.0417 27.7282 10.0417H18.3949C17.6616 10.0417 17.0616 10.6417 17.0616 11.375C17.0616 12.1083 17.6616 12.7083 18.3949 12.7083H27.7282C28.4616 12.7083 29.0616 12.1083 29.0616 11.375ZM17.0616 22.0417C17.0616 22.775 17.6616 23.375 18.3949 23.375H27.7282C28.4616 23.375 29.0616 22.775 29.0616 22.0417C29.0616 21.3083 28.4616 20.7083 27.7282 20.7083H18.3949C17.6616 20.7083 17.0616 21.3083 17.0616 22.0417ZM13.6882 6.88167C14.2082 7.40167 14.2082 8.24167 13.6882 8.76167L8.04823 14.4283C7.52823 14.9483 6.68823 14.9483 6.1549 14.4283L3.32823 11.5883C2.80823 11.0683 2.80823 10.2283 3.32823 9.70834C3.84823 9.18834 4.68823 9.18834 5.20823 9.70834L7.10157 11.6017L11.8216 6.88167C12.3282 6.375 13.1816 6.375 13.6882 6.88167ZM13.7016 17.5617C14.2216 18.0817 14.2216 18.9217 13.7016 19.4417L8.06157 25.1083C7.54157 25.6283 6.70157 25.6283 6.16823 25.1083L3.32823 22.255C2.80823 21.735 2.80823 20.895 3.32823 20.375C3.84823 19.855 4.68823 19.855 5.20823 20.375L7.10157 22.2683L11.8216 17.5483C12.3282 17.0417 13.1816 17.0417 13.7016 17.5617Z" fill="#0F4C81"/>
</svg>
