<svg width="80" height="80" viewBox="0 0 80 80" fill="none" xmlns="http://www.w3.org/2000/svg">
<path d="M29.8495 52.0975C29.6627 52.5729 29.3866 53.0081 29.036 53.3795C28.6872 53.7451 28.2679 54.0361 27.8034 54.235C27.2351 54.4824 26.6128 54.58 25.996 54.5182C25.3793 54.4565 24.7886 54.2376 24.2806 53.8824C23.6536 53.4426 23.17 52.8278 22.8902 52.1148C22.6048 51.3893 22.5296 50.5981 22.6733 49.8318C22.8156 49.073 23.1733 48.3712 23.7038 47.8102C24.2223 47.2617 24.8956 46.8842 25.634 46.7279C26.3653 46.5744 27.1262 46.6528 27.8108 46.9522C28.5056 47.2584 29.0941 47.7638 29.5019 48.4043C29.8454 48.9505 30.0557 49.5697 30.1161 50.212C30.1765 50.8543 30.0852 51.5019 29.8495 52.1024V52.0975Z" fill="#0F4C81"/>
<path d="M55.8155 53.3721C55.4758 53.735 55.066 54.0253 54.6109 54.2253C54.1558 54.4253 53.6649 54.5309 53.1679 54.5358H53.1481C52.398 54.536 51.6661 54.3044 51.0527 53.8726C50.4271 53.4319 49.9445 52.8173 49.6648 52.1049C49.378 51.3797 49.3028 50.5881 49.4479 49.8219C49.588 49.0624 49.946 48.36 50.4783 47.8003C50.9957 47.2529 51.6671 46.8755 52.4036 46.718C53.1349 46.5642 53.8959 46.6427 54.5804 46.9424C55.277 47.2459 55.8662 47.7518 56.2716 48.3945C56.7553 49.1583 56.9728 50.0606 56.8904 50.9609C56.8079 51.8612 56.43 52.709 55.8155 53.3721Z" fill="#0F4C81"/>
<path d="M61.5496 41.1216C61.5294 41.187 61.4958 41.2474 61.4509 41.2991C61.4081 41.3514 61.3542 41.3935 61.2932 41.4224C61.2328 41.4499 61.1672 41.4641 61.1009 41.4643H56.8065C56.737 41.4641 56.6685 41.4472 56.6068 41.415L52.9559 39.6251C52.8745 39.5844 52.8074 39.5199 52.7636 39.4402C52.7149 39.3617 52.6893 39.2712 52.6896 39.1788V33.5898C52.6896 33.525 52.7013 33.4607 52.7241 33.4C52.7461 33.3393 52.7805 33.2839 52.8252 33.2373C52.8695 33.1914 52.9222 33.1546 52.9805 33.1288C53.0373 33.104 53.0986 33.0914 53.1605 33.0918H60.2627C60.3794 33.094 60.491 33.1397 60.5758 33.22C60.6626 33.3017 60.7169 33.412 60.7286 33.5306L61.5742 40.9268C61.5808 40.9922 61.575 41.0583 61.5569 41.1216H61.5496Z" fill="#0F4C81"/>
<path d="M41.291 29.345L32.791 37.7747C32.4595 38.1035 31.924 38.1035 31.5925 37.7747L29.187 35.3891C28.8555 35.0604 28.8555 34.5293 29.187 34.2005C29.5185 33.8718 30.054 33.8718 30.3855 34.2005L32.1875 35.9876L40.084 28.1564C40.4155 27.8276 40.951 27.8276 41.2825 28.1564C41.6225 28.4851 41.6225 29.0162 41.291 29.345Z" fill="#0F4C81"/>
<path d="M36.599 26.6896C35.1625 26.108 33.5305 25.9056 31.8305 26.2091C28.371 26.8245 25.6085 29.5894 25.022 33.0204C24.053 38.7104 28.83 43.5828 34.5335 42.8494C37.8995 42.4195 40.7215 39.9328 41.6055 36.6873C41.9455 35.4481 41.9795 34.2511 41.784 33.1299C41.6735 32.4556 40.832 32.1942 40.339 32.6747C40.1435 32.8686 40.0585 33.1552 40.1095 33.425C40.2965 34.5461 40.2115 35.7432 39.6675 37.0161C38.6815 39.3005 36.5395 40.978 34.049 41.2056C29.714 41.6018 26.1185 37.9602 26.654 33.6357C27.0195 30.6516 29.442 28.2238 32.4425 27.8108C33.913 27.6084 35.307 27.8866 36.497 28.4936C36.8285 28.6622 37.228 28.6032 37.4915 28.3418C37.8995 27.9372 37.7975 27.2544 37.2875 26.9931C37.211 26.9594 37.1345 26.9247 37.058 26.89C36.9051 26.8208 36.752 26.7514 36.599 26.6896Z" fill="#0F4C81"/>
<path fill-rule="evenodd" clip-rule="evenodd" d="M40 80C62.0914 80 80 62.0914 80 40C80 17.9086 62.0914 0 40 0C17.9086 0 0 17.9086 0 40C0 62.0914 17.9086 80 40 80ZM63.0509 31.8616C63.0499 31.7323 63.0248 31.6044 62.9769 31.4844C62.931 31.3648 62.8614 31.2558 62.7723 31.1639C62.6856 31.0734 62.5817 31.0013 62.4666 30.9518C62.3522 30.9026 62.2288 30.8774 62.1042 30.8779H50.3477V22.9886C50.3487 22.7297 50.2508 22.4801 50.074 22.2909C49.9886 22.1999 49.8855 22.1271 49.7711 22.0771C49.6567 22.0271 49.5333 22.0009 49.4084 22H16.9368C16.8123 22.0011 16.6894 22.0274 16.5754 22.0774C16.4614 22.1274 16.3587 22.2001 16.2736 22.2909C16.0968 22.4801 15.999 22.7297 16 22.9886V50.5887C15.999 50.8476 16.0968 51.0972 16.2736 51.2864C16.359 51.3771 16.4616 51.4498 16.5755 51.5002C16.6894 51.5506 16.8123 51.5777 16.9368 51.5798H19.402C19.6161 53.336 20.4438 54.9601 21.739 56.1654C22.9983 57.3442 24.6586 58 26.3834 58C28.1083 58 29.7686 57.3442 31.0279 56.1654C32.3239 54.9608 33.1518 53.3363 33.3649 51.5798H46.2037C46.4168 53.3363 47.2447 54.9608 48.5407 56.1654C49.8 57.3442 51.4603 58 53.1851 58C54.91 58 56.5703 57.3442 57.8296 56.1654C59.1247 54.9601 59.9524 53.336 60.1666 51.5798H63.5316C63.5936 51.5791 63.6549 51.5656 63.7115 51.5403C63.7687 51.515 63.8206 51.479 63.8644 51.4343C63.9067 51.3878 63.9409 51.3344 63.9654 51.2765C63.989 51.216 64.0007 51.1516 64 51.0867V41.2448L63.0509 31.8616Z" fill="#0F4C81"/>
<path fill-rule="evenodd" clip-rule="evenodd" d="M62.9769 31.4844C63.0248 31.6044 63.0499 31.7323 63.0509 31.8616L64 41.2448V51.0867C64.0007 51.1516 63.989 51.216 63.9654 51.2765C63.9409 51.3344 63.9067 51.3878 63.8644 51.4343C63.8206 51.479 63.7687 51.515 63.7115 51.5403C63.6549 51.5656 63.5936 51.5791 63.5316 51.5798H60.1666C59.9524 53.336 59.1247 54.9601 57.8296 56.1654C56.5703 57.3442 54.91 58 53.1851 58C51.4603 58 49.8 57.3442 48.5407 56.1654C47.2447 54.9608 46.4168 53.3363 46.2037 51.5798H33.3649C33.1518 53.3363 32.3239 54.9608 31.0279 56.1654C29.7686 57.3442 28.1083 58 26.3834 58C24.6586 58 22.9983 57.3442 21.739 56.1654C20.4438 54.9601 19.6161 53.336 19.402 51.5798H16.9368C16.8123 51.5777 16.6894 51.5506 16.5755 51.5002C16.4616 51.4498 16.359 51.3771 16.2736 51.2864C16.0968 51.0972 15.999 50.8476 16 50.5887V22.9886C15.999 22.7297 16.0968 22.4801 16.2736 22.2909C16.3587 22.2001 16.4614 22.1274 16.5754 22.0774C16.6894 22.0274 16.8123 22.0011 16.9368 22H49.4084C49.5333 22.0009 49.6567 22.0271 49.7711 22.0771C49.8855 22.1271 49.9886 22.1999 50.074 22.2909C50.2508 22.4801 50.3487 22.7297 50.3477 22.9886V30.8779H62.1042C62.2288 30.8774 62.3522 30.9026 62.4666 30.9518C62.5817 31.0013 62.6856 31.0734 62.7723 31.1639C62.8614 31.2558 62.931 31.3648 62.9769 31.4844ZM29.8495 52.0975C29.6627 52.5729 29.3866 53.0081 29.036 53.3795C28.6872 53.7451 28.2679 54.0361 27.8034 54.235C27.2351 54.4824 26.6128 54.58 25.996 54.5182C25.3793 54.4565 24.7886 54.2376 24.2806 53.8824C23.6536 53.4426 23.17 52.8278 22.8902 52.1148C22.6048 51.3893 22.5296 50.5981 22.6733 49.8318C22.8156 49.073 23.1733 48.3712 23.7038 47.8102C24.2223 47.2617 24.8956 46.8842 25.634 46.7279C26.3653 46.5744 27.1262 46.6528 27.8108 46.9522C28.5056 47.2584 29.0941 47.7638 29.5019 48.4043C29.8454 48.9505 30.0557 49.5697 30.1161 50.212C30.1765 50.8543 30.0852 51.5019 29.8495 52.1024V52.0975ZM55.8155 53.3721C55.4758 53.735 55.066 54.0253 54.6109 54.2253C54.1558 54.4253 53.6649 54.5309 53.1679 54.5358H53.1481C52.398 54.536 51.6661 54.3044 51.0527 53.8726C50.4271 53.4319 49.9445 52.8173 49.6648 52.1049C49.378 51.3797 49.3028 50.5881 49.4479 49.8219C49.588 49.0624 49.946 48.36 50.4783 47.8003C50.9957 47.2529 51.6671 46.8755 52.4036 46.718C53.1349 46.5642 53.8959 46.6427 54.5804 46.9424C55.277 47.2459 55.8662 47.7518 56.2716 48.3945C56.7553 49.1583 56.9728 50.0606 56.8904 50.9609C56.8079 51.8612 56.43 52.709 55.8155 53.3721ZM61.5496 41.1216C61.5294 41.187 61.4958 41.2474 61.4509 41.2991C61.4081 41.3514 61.3542 41.3935 61.2932 41.4224C61.2328 41.4499 61.1672 41.4641 61.1009 41.4643H56.8065C56.737 41.4641 56.6685 41.4472 56.6068 41.415L52.9559 39.6251C52.8745 39.5844 52.8074 39.5199 52.7636 39.4402C52.7149 39.3617 52.6893 39.2712 52.6896 39.1788V33.5898C52.6896 33.525 52.7013 33.4607 52.7241 33.4C52.7461 33.3393 52.7805 33.2839 52.8252 33.2373C52.8695 33.1914 52.9222 33.1546 52.9805 33.1288C53.0373 33.104 53.0986 33.0914 53.1605 33.0918H60.2627C60.3794 33.094 60.491 33.1397 60.5758 33.22C60.6626 33.3017 60.7169 33.412 60.7286 33.5306L61.5742 40.9268C61.5808 40.9922 61.575 41.0583 61.5569 41.1216H61.5496ZM41.291 29.345L32.791 37.7747C32.4595 38.1035 31.924 38.1035 31.5925 37.7747L29.187 35.3891C28.8555 35.0604 28.8555 34.5293 29.187 34.2005C29.5185 33.8718 30.054 33.8718 30.3855 34.2005L32.1875 35.9876L40.084 28.1564C40.4155 27.8276 40.951 27.8276 41.2825 28.1564C41.6225 28.4851 41.6225 29.0162 41.291 29.345ZM36.599 26.6896C35.1625 26.108 33.5305 25.9056 31.8305 26.2091C28.371 26.8245 25.6085 29.5894 25.022 33.0204C24.053 38.7104 28.83 43.5828 34.5335 42.8494C37.8995 42.4195 40.7215 39.9328 41.6055 36.6873C41.9455 35.4481 41.9795 34.2511 41.784 33.1299C41.6735 32.4556 40.832 32.1942 40.339 32.6747C40.1435 32.8686 40.0585 33.1552 40.1095 33.425C40.2965 34.5461 40.2115 35.7432 39.6675 37.0161C38.6815 39.3005 36.5395 40.978 34.049 41.2056C29.714 41.6018 26.1185 37.9602 26.654 33.6357C27.0195 30.6516 29.442 28.2238 32.4425 27.8108C33.913 27.6084 35.307 27.8866 36.497 28.4936C36.8285 28.6622 37.228 28.6032 37.4915 28.3418C37.8995 27.9372 37.7975 27.2544 37.2875 26.9931C37.211 26.9594 37.1345 26.9247 37.058 26.89C36.9051 26.8208 36.752 26.7514 36.599 26.6896Z" fill="white"/>
</svg>
