<svg width="29" height="23" viewBox="0 0 29 23" fill="none" xmlns="http://www.w3.org/2000/svg">
<path fill-rule="evenodd" clip-rule="evenodd" d="M1 0C0.447715 0 0 0.447716 0 1V17.6546C0 18.2068 0.447716 18.6546 1 18.6546L2.09214 18.6546C2.29135 20.6818 4.001 22.2656 6.08057 22.2656C8.16014 22.2656 9.86978 20.6818 10.069 18.6546L18.674 18.6546C18.8732 20.6818 20.5829 22.2656 22.6624 22.2656C24.7439 22.2656 26.4548 20.6789 26.6514 18.649C27.6853 18.5716 28.5001 17.7083 28.5001 16.6546V11.4001L27.5817 7.27605C27.1743 5.44673 25.5515 4.14551 23.6773 4.14551H18.6546V1C18.6546 0.447715 18.2068 0 17.6546 0H1ZM8.27189 18.6546C8.08476 19.695 7.17485 20.4844 6.08057 20.4844C4.98628 20.4844 4.07637 19.695 3.88925 18.6546C3.86609 18.5258 3.854 18.3932 3.854 18.2578C3.854 17.0281 4.85087 16.0312 6.08057 16.0312C7.31027 16.0312 8.30713 17.0281 8.30713 18.2578C8.30713 18.3932 8.29504 18.5258 8.27189 18.6546ZM22.6624 20.4844C22.5256 20.4844 22.3917 20.472 22.2618 20.4484C21.352 20.2831 20.6348 19.5649 20.4711 18.6546H20.4712C20.448 18.5258 20.4359 18.3932 20.4359 18.2578C20.4359 17.0281 21.4328 16.0312 22.6625 16.0312C23.8922 16.0312 24.889 17.0281 24.889 18.2578C24.889 19.3125 24.1558 20.1958 23.1713 20.426C23.0717 20.4492 22.9695 20.4658 22.8653 20.4753C22.7985 20.4813 22.7308 20.4844 22.6625 20.4844H22.6624ZM21.1362 5.75781H23.9916C24.9351 5.75781 25.7503 6.41718 25.9474 7.33983L26.6142 10.4599C26.7472 11.0823 26.2727 11.6689 25.6363 11.6689H24.1362C21.9271 11.6689 20.1362 9.87807 20.1362 7.66893V6.75781C20.1362 6.20553 20.5839 5.75781 21.1362 5.75781Z" fill="white"/>
</svg>
