<svg width="52" height="24" viewBox="0 0 52 24" fill="none" xmlns="http://www.w3.org/2000/svg">
<path d="M23.9593 0H0.0406618V24H23.9593V0Z" fill="#006EB8"/>
<path d="M24 24H0L0.0406618 13.7592C0.0406618 13.7592 2.7052 14.448 3.37014 14.4408C5.08272 14.4192 5.95575 14.2968 7.45545 13.7592C9.01788 13.1741 10.5199 12.4378 11.9402 11.5608C13.1768 10.7808 15.6069 9.3192 16.9033 8.82C17.4248 8.6184 20.7088 7.8936 21.778 7.9488C22.5247 8.01115 23.259 8.17838 23.9593 8.4456" fill="#29BAED"/>
<path d="M23.9306 8.4144C23.9306 8.4144 21.9908 6.9264 17.774 7.1808C13.5571 7.4352 8.90253 11.1096 6.02033 12.5616C4.66414 13.2432 2.43253 14.0016 0.703209 13.8288C0.583616 13.8288 0.540562 13.812 0.420969 13.7952L0.100458 13.7568C0.100458 13.7568 3.39167 15.0528 6.40064 14.2368C10.8041 13.0656 14.7841 9.1464 19.3454 8.3736C22.3951 7.8552 23.9306 8.4144 23.9306 8.4144Z" fill="#FAFAFA"/>
<path d="M23.9306 5.0544C23.9306 5.0544 21.9908 3.5664 17.774 3.8208C13.5571 4.0752 8.90253 7.7496 6.02033 9.2016C4.66414 9.8832 2.43253 10.6416 0.703209 10.4688C0.583616 10.4688 0.540562 10.452 0.420969 10.4352L0.100458 10.3968C0.100458 10.3968 3.39167 11.6928 6.40064 10.8768C10.8041 9.7056 14.7841 5.7864 19.3454 5.0136C22.3951 4.4952 23.9306 5.0544 23.9306 5.0544Z" fill="#FAFAFA"/>
<path d="M23.9306 1.6944C23.9306 1.6944 21.9908 0.2064 17.774 0.4608C13.5571 0.7152 8.90253 4.3896 6.02033 5.8416C4.66414 6.5232 2.43253 7.2816 0.703209 7.1088C0.583616 7.0968 0.540562 7.092 0.420969 7.0752L0.100458 7.0368C0.100458 7.0368 3.39167 8.3328 6.40064 7.5168C10.8041 6.3456 14.7841 2.4264 19.3454 1.6536C22.3951 1.1352 23.9306 1.6944 23.9306 1.6944Z" fill="#FAFAFA"/>
<path d="M2.16942 18.7848H0.423361L0.602751 18.0648H6.36237L6.18298 18.7848H5.9701C5.71749 18.7789 5.4648 18.7925 5.21427 18.8256C4.56608 18.9144 4.42735 19.0056 4.19773 19.4496C4.14146 19.5887 4.09744 19.7324 4.06618 19.8792C3.54953 21.9456 3.04006 24 3.04006 24H1.03089L2.28423 18.96C2.30744 18.9415 2.32282 18.915 2.32729 18.8856C2.32746 18.8674 2.32205 18.8495 2.31178 18.8345C2.30151 18.8195 2.28688 18.808 2.26988 18.8016C2.23709 18.7924 2.20341 18.7868 2.16942 18.7848Z" fill="#FAFAFA"/>
<path d="M7.48655 24L6.86227 18.0768H8.70161C8.70161 18.0768 8.89775 20.4768 9.10345 22.8768C9.12019 23.076 9.13693 23.1336 9.1776 23.1816C9.18542 23.19 9.19487 23.1966 9.20536 23.2012C9.21585 23.2057 9.22716 23.2081 9.23859 23.2081C9.25002 23.2081 9.26132 23.2057 9.27181 23.2012C9.2823 23.1966 9.29175 23.19 9.29958 23.1816C9.34225 23.1382 9.38069 23.0908 9.41439 23.04C9.45505 22.9584 9.50528 22.8768 9.50528 22.8768L11.0648 20.184C11.1551 20.0601 11.2283 19.9244 11.2824 19.7808C11.5216 19.212 11.2824 18.7848 10.7754 18.7008C10.6452 18.6772 10.5127 18.6691 10.3807 18.6768C10.2324 18.6768 10.0841 18.6768 10.0841 18.6768H10.0267L10.1846 18.06H13.3371L9.71816 24H7.48655Z" fill="#FAFAFA"/>
<path d="M15.2458 24H13.3107L14.3775 19.6944L14.4349 19.4808C14.4403 19.4364 14.4483 19.3923 14.4588 19.3488C14.4588 19.2912 14.4756 19.2432 14.4828 19.1928C14.4995 18.7896 14.3775 18.6672 13.9183 18.6408C13.8665 18.6374 13.8146 18.6374 13.7628 18.6408H13.6002L13.8226 18.0744H16.7239L15.2458 24Z" fill="#FAFAFA"/>
<path d="M18.2739 24H16.3293L17.8075 18.0744H21.4168C21.5316 18.0744 21.6368 18.0744 21.7445 18.0888C22.2016 18.1167 22.6484 18.2375 23.0576 18.444C23.9593 18.96 24.1985 20.0688 23.2633 21.0552C22.5457 21.804 21.3355 22.2552 19.3646 22.2096C19.2832 22.2096 19.2091 22.2096 19.1254 22.1928L19.2665 21.6312H19.5272L19.8142 21.6072C20.9886 21.4512 21.5459 21.0456 21.7421 20.4792C22.0387 19.6152 21.5866 18.8808 20.7853 18.7488C20.7042 18.7321 20.6218 18.7224 20.539 18.72H19.5822L18.2739 24Z" fill="#FAFAFA"/>
<path d="M51.9593 0H28.0407V23.9727H51.9593V0Z" fill="#006EB8"/>
<path d="M52 23.9727H28L28.0407 13.7435C28.0407 13.7435 30.7052 14.4316 31.3701 14.4244C33.0827 14.4028 33.9558 14.2805 35.4555 13.7435C37.0179 13.1591 38.5199 12.4236 39.9402 11.5476C41.1768 10.7685 43.6069 9.3086 44.9033 8.80996C45.4248 8.60859 48.7088 7.88462 49.778 7.93975C50.5247 8.00204 51.259 8.16908 51.9593 8.43599" fill="#29BAED"/>
<path d="M51.9306 8.40483C51.9306 8.40483 49.9908 6.91852 45.774 7.17263C41.5571 7.42674 36.9025 11.097 34.0203 12.5473C32.6641 13.2281 30.4325 13.9857 28.7032 13.8131C28.5836 13.8131 28.5406 13.7963 28.421 13.7795L28.1005 13.7411C28.1005 13.7411 31.3917 15.0357 34.4006 14.2206C38.8041 13.0507 42.7841 9.13599 47.3454 8.36407C50.3951 7.84626 51.9306 8.40483 51.9306 8.40483Z" fill="#FAFAFA"/>
<path d="M51.9306 5.04865C51.9306 5.04865 49.9908 3.56234 45.774 3.81645C41.5571 4.07056 36.9025 7.74078 34.0203 9.19113C32.6641 9.87195 30.4325 10.6295 28.7032 10.4569C28.5836 10.4569 28.5406 10.4401 28.421 10.4233L28.1005 10.385C28.1005 10.385 31.3917 11.6795 34.4006 10.8644C38.8041 9.69456 42.7841 5.77982 47.3454 5.00789C50.3951 4.49009 51.9306 5.04865 51.9306 5.04865Z" fill="#FAFAFA"/>
<path d="M51.9306 1.69247C51.9306 1.69247 49.9908 0.206165 45.774 0.460276C41.5571 0.714386 36.9025 4.38461 34.0203 5.83495C32.6641 6.51578 30.4325 7.27331 28.7032 7.10071C28.5836 7.08873 28.5406 7.08393 28.421 7.06715L28.1005 7.02879C28.1005 7.02879 31.3917 8.32332 34.4006 7.50825C38.8041 6.33838 42.7841 2.42364 47.3454 1.65172C50.3951 1.13391 51.9306 1.69247 51.9306 1.69247Z" fill="#FAFAFA"/>
<path d="M30.0403 23.9727H28.9233L33.1449 18.2192H35.4028L35.7616 23.9727H33.927L33.6879 19.5665C33.6879 19.5665 33.6879 19.4562 33.6879 19.3268C33.6858 19.2967 33.6741 19.2681 33.6544 19.2453C33.6412 19.2283 33.6243 19.2146 33.605 19.2052C33.5858 19.1958 33.5646 19.1909 33.5432 19.1909C33.5217 19.1909 33.5005 19.1958 33.4813 19.2052C33.462 19.2146 33.4451 19.2283 33.4319 19.2453C33.4219 19.2539 33.4138 19.2645 33.408 19.2764L33.3363 19.3795L31.8126 21.5371C31.7754 21.5859 31.7455 21.64 31.7241 21.6977C31.7137 21.7286 31.7153 21.7623 31.7286 21.7921C31.7419 21.8219 31.7659 21.8455 31.7959 21.8583C31.8348 21.8789 31.8798 21.8848 31.9227 21.8751H33.4941L33.2884 22.5223H33.1688C33.134 22.5286 33.0989 22.5326 33.0636 22.5343C33.0014 22.5343 32.9296 22.5343 32.8579 22.5343C31.5017 22.5343 31.0783 22.7021 30.5593 23.3326L30.5282 23.3734C30.5282 23.3734 30.4158 23.5172 30.3129 23.661C30.2555 23.733 30.1933 23.8073 30.0403 23.9727Z" fill="#FAFAFA"/>
<path d="M37.7301 23.7042L37.6105 23.673V22.6158L37.6655 22.6494L37.7134 22.6806C38.0337 22.8624 38.3773 22.9996 38.7347 23.0881C39.1397 23.2019 39.5617 23.2425 39.9809 23.208C40.6506 23.1432 41.0572 22.9515 41.3275 22.6734C41.3981 22.6101 41.4513 22.5296 41.4817 22.4396C41.5122 22.3497 41.519 22.2534 41.5014 22.1601C41.4839 22.0668 41.4426 21.9796 41.3815 21.907C41.3204 21.8344 41.2417 21.7788 41.1529 21.7456C40.8827 21.6327 40.5974 21.56 40.3062 21.5299C40.2313 21.5204 40.1571 21.5068 40.0837 21.4891C39.1652 21.3213 39.0313 21.2901 38.7682 21.1703C38.0865 20.8562 37.8473 19.986 38.3377 19.274C38.7825 18.6268 39.6843 18.1785 41.5117 18.0754C42.0232 18.0586 42.5353 18.0747 43.0448 18.1234C43.1549 18.1234 43.2673 18.1401 43.3797 18.1545L43.6739 18.1881L43.8964 18.2121H43.9849L44.0973 18.2288L43.6189 20.1227H42.8702V20.0268C42.8675 19.9901 42.8675 19.9532 42.8702 19.9165C42.875 19.8495 42.875 19.7822 42.8702 19.7151C42.832 19.0199 42.5521 18.773 41.7939 18.7562H41.5954C40.7965 18.7802 40.3994 18.972 40.1268 19.3004C40.0607 19.3712 40.013 19.4571 39.9876 19.5506C39.9623 19.6441 39.9602 19.7424 39.9814 19.8369C40.0026 19.9315 40.0465 20.0194 40.1094 20.093C40.1723 20.1666 40.2521 20.2237 40.342 20.2593C40.6161 20.3883 40.9055 20.4817 41.2031 20.5374C41.2988 20.5542 41.3945 20.5782 41.4901 20.6021C42.3369 20.8179 42.4875 20.8658 42.7363 20.9953C43.6045 21.434 43.717 22.3617 42.9755 23.033C42.734 23.231 42.4648 23.3926 42.1766 23.5124C41.7185 23.7119 41.2359 23.8489 40.7415 23.92C39.9043 24.0542 39.249 24.0302 38.053 23.7665C37.9722 23.7533 37.8923 23.7349 37.8138 23.7114C37.7858 23.7109 37.7578 23.7085 37.7301 23.7042Z" fill="#FAFAFA"/>
<path d="M45.3554 23.9727H44.2384L48.46 18.2192H50.718L51.0767 23.9727H49.2422L49.003 19.5665C49.003 19.5665 49.003 19.4562 49.003 19.3268C49.0009 19.2967 48.9892 19.2681 48.9695 19.2453C48.9563 19.2283 48.9394 19.2146 48.9202 19.2052C48.9009 19.1958 48.8797 19.1909 48.8583 19.1909C48.8368 19.1909 48.8157 19.1958 48.7964 19.2052C48.7771 19.2146 48.7603 19.2283 48.7471 19.2453C48.737 19.2539 48.7289 19.2645 48.7231 19.2764L48.6514 19.3795L47.1278 21.5754C47.0905 21.6243 47.0607 21.6784 47.0393 21.736C47.0288 21.7669 47.0304 21.8007 47.0437 21.8304C47.057 21.8602 47.0811 21.8839 47.111 21.8967C47.1499 21.9172 47.1949 21.9232 47.2378 21.9134H48.8116L48.6107 22.5535H48.4911C48.4509 22.55 48.4109 22.5436 48.3715 22.5343C48.3093 22.5343 48.2376 22.5343 48.1658 22.5343C46.8096 22.5343 46.3863 22.7021 45.8673 23.3326L45.8362 23.3734C45.8362 23.3734 45.7237 23.5172 45.6209 23.661C45.5707 23.733 45.5013 23.8073 45.3554 23.9727Z" fill="#FAFAFA"/>
</svg>
